<svg xmlns="http://www.w3.org/2000/svg" width="701" height="122" viewBox="0 0 700.613 122" role="img" aria-label="event-storage logo">
  <g fill="#fff" transform="translate(20 12) rotate(45 49 49)">
    <circle cx="26" cy="26" r="7.7"/>
    <circle cx="72" cy="26" r="7.7"/>
    <circle cx="26" cy="72" r="7.7"/>
    <circle cx="72" cy="72" r="7.7"/>
    <rect x="45" y="9" width="8" height="24"/>
    <rect x="45" y="66" width="8" height="24"/>
    <rect x="9" y="45" width="24" height="8"/>
    <rect x="66" y="45" width="24" height="8"/>
  </g>
  <path fill="#fff" d="M 161.952 78.759 C 157.824 78.759 154.269 77.942 151.288 76.308 C 148.307 74.674 146.013 72.409 144.408 69.514 C 142.803 66.619 142 63.336 142 59.667 C 142 56.112 142.903 52.887 144.709 49.992 C 146.515 47.097 148.937 44.789 151.976 43.069 C 155.015 41.349 158.397 40.489 162.124 40.489 C 166.94 40.489 170.939 41.879 174.121 44.66 C 177.303 47.441 179.439 51.354 180.528 56.399 L 152.406 66.117 C 153.438 67.78 154.8 69.07 156.491 69.987 C 158.182 70.904 160.06 71.363 162.124 71.363 C 163.672 71.363 165.163 71.105 166.596 70.589 C 168.029 70.073 169.377 69.328 170.638 68.353 L 174.594 74.803 C 172.759 76.007 170.724 76.967 168.488 77.684 C 166.252 78.401 164.073 78.759 161.952 78.759 Z M 150.6 59.151 C 150.6 59.782 150.629 60.384 150.686 60.957 L 170.724 53.647 C 169.979 51.984 168.875 50.522 167.413 49.261 C 165.951 48 163.987 47.369 161.522 47.369 C 158.311 47.369 155.688 48.473 153.653 50.68 C 151.618 52.887 150.6 55.711 150.6 59.151 Z M 205.244 78.931 L 185.034 41.951 L 195.268 41.951 L 205.76 63.967 L 215.392 41.951 L 225.024 41.951 L 205.674 78.931 Z M 250.472 78.759 C 246.344 78.759 242.789 77.942 239.808 76.308 C 236.826 74.674 234.533 72.409 232.928 69.514 C 231.322 66.619 230.52 63.336 230.52 59.667 C 230.52 56.112 231.423 52.887 233.229 49.992 C 235.035 47.097 237.457 44.789 240.496 43.069 C 243.534 41.349 246.917 40.489 250.644 40.489 C 255.46 40.489 259.459 41.879 262.641 44.66 C 265.823 47.441 267.958 51.354 269.048 56.399 L 240.926 66.117 C 241.958 67.78 243.319 69.07 245.011 69.987 C 246.702 70.904 248.58 71.363 250.644 71.363 C 252.192 71.363 253.682 71.105 255.116 70.589 C 256.549 70.073 257.896 69.328 259.158 68.353 L 263.114 74.803 C 261.279 76.007 259.244 76.967 257.008 77.684 C 254.772 78.401 252.593 78.759 250.472 78.759 Z M 239.12 59.151 C 239.12 59.782 239.148 60.384 239.206 60.957 L 259.244 53.647 C 258.498 51.984 257.395 50.522 255.933 49.261 C 254.471 48 252.507 47.369 250.042 47.369 C 246.831 47.369 244.208 48.473 242.173 50.68 C 240.137 52.887 239.12 55.711 239.12 59.151 Z M 287.927 41.951 L 288.529 48.831 C 289.676 46.308 291.51 44.302 294.033 42.811 C 296.556 41.32 299.508 40.575 302.891 40.575 C 306.216 40.575 308.968 41.578 311.147 43.585 C 313.326 45.592 314.472 48.172 314.587 51.325 L 314.587 77.899 L 305.901 77.899 L 305.901 54.335 C 305.844 52.5 305.299 50.995 304.267 49.82 C 303.235 48.645 301.63 48.028 299.451 47.971 C 296.412 47.971 293.875 49.232 291.84 51.755 C 289.805 54.278 288.787 57.517 288.787 61.473 L 288.787 77.899 L 280.101 77.899 L 280.101 41.951 Z M 333.134 26.213 L 341.906 26.213 L 341.906 42.037 L 351.538 42.037 L 351.538 48.831 L 341.906 48.831 L 341.906 77.899 L 333.134 77.899 L 333.134 48.831 L 326.77 48.831 L 326.77 42.037 L 333.134 42.037 Z M 359.878 55.453 L 375.874 55.453 L 375.874 63.021 L 359.878 63.021 Z M 399.351 78.673 C 396.713 78.673 394.191 78.2 391.783 77.254 C 389.375 76.308 387.339 74.946 385.677 73.169 L 389.375 68.181 C 390.865 69.614 392.413 70.704 394.019 71.449 C 395.624 72.194 397.172 72.567 398.663 72.567 C 400.325 72.567 401.787 72.237 403.049 71.578 C 404.31 70.919 404.941 69.815 404.941 68.267 C 404.941 67.006 404.525 66.031 403.694 65.343 C 402.862 64.655 401.816 64.082 400.555 63.623 C 399.293 63.164 397.946 62.734 396.513 62.333 C 390.378 60.326 387.311 56.8 387.311 51.755 C 387.311 49.92 387.784 48.143 388.73 46.423 C 389.676 44.703 391.109 43.313 393.03 42.252 C 394.95 41.191 397.373 40.661 400.297 40.661 C 402.819 40.661 405.084 40.962 407.091 41.564 C 409.097 42.166 410.961 43.184 412.681 44.617 L 409.327 49.863 C 408.295 48.831 407.076 48.043 405.672 47.498 C 404.267 46.953 402.991 46.652 401.845 46.595 C 400.297 46.595 398.949 46.953 397.803 47.67 C 396.656 48.387 396.083 49.347 396.083 50.551 C 396.083 51.812 396.484 52.787 397.287 53.475 C 398.089 54.163 399.136 54.722 400.426 55.152 C 401.716 55.582 403.02 56.026 404.339 56.485 C 406.976 57.345 409.169 58.52 410.918 60.011 C 412.666 61.502 413.541 63.68 413.541 66.547 C 413.541 68.726 413.025 70.732 411.993 72.567 C 410.961 74.402 409.398 75.878 407.306 76.996 C 405.213 78.114 402.561 78.673 399.351 78.673 Z M 429.044 26.213 L 437.816 26.213 L 437.816 42.037 L 447.448 42.037 L 447.448 48.831 L 437.816 48.831 L 437.816 77.899 L 429.044 77.899 L 429.044 48.831 L 422.68 48.831 L 422.68 42.037 L 429.044 42.037 Z M 454.842 59.581 C 454.842 55.969 455.702 52.73 457.422 49.863 C 459.142 46.996 461.507 44.717 464.517 43.026 C 467.527 41.335 471.01 40.489 474.966 40.489 C 478.922 40.489 482.376 41.335 485.329 43.026 C 488.281 44.717 490.575 46.996 492.209 49.863 C 493.843 52.73 494.66 55.969 494.66 59.581 C 494.66 63.193 493.829 66.447 492.166 69.342 C 490.503 72.237 488.181 74.531 485.2 76.222 C 482.218 77.913 478.75 78.759 474.794 78.759 C 470.953 78.759 467.541 77.985 464.56 76.437 C 461.579 74.889 459.213 72.682 457.465 69.815 C 455.716 66.948 454.842 63.537 454.842 59.581 Z M 463.614 59.667 C 463.614 61.96 464.101 63.996 465.076 65.773 C 466.05 67.55 467.384 68.969 469.075 70.03 C 470.766 71.091 472.644 71.621 474.708 71.621 C 477.976 71.621 480.656 70.474 482.749 68.181 C 484.842 65.888 485.888 63.05 485.888 59.667 C 485.888 56.284 484.842 53.432 482.749 51.11 C 480.656 48.788 477.976 47.627 474.708 47.627 C 472.587 47.627 470.695 48.172 469.032 49.261 C 467.369 50.35 466.05 51.812 465.076 53.647 C 464.101 55.482 463.614 57.488 463.614 59.667 Z M 514.305 41.951 L 514.993 50.465 C 516.025 48.401 517.401 46.624 519.121 45.133 C 520.841 43.642 522.632 42.496 524.496 41.693 C 526.359 40.89 527.95 40.489 529.269 40.489 L 528.839 49.089 C 526.144 48.917 523.779 49.433 521.744 50.637 C 519.708 51.841 518.117 53.446 516.971 55.453 C 515.824 57.46 515.251 59.61 515.251 61.903 L 515.251 77.899 L 506.565 77.899 L 506.565 41.951 Z M 554.369 78.759 C 550.986 78.759 547.919 78.042 545.167 76.609 C 542.415 75.176 540.236 73.069 538.631 70.288 C 537.025 67.507 536.223 64.053 536.223 59.925 C 536.223 55.912 537.068 52.457 538.76 49.562 C 540.451 46.667 542.673 44.431 545.425 42.854 C 548.177 41.277 551.215 40.489 554.541 40.489 C 557.866 40.489 560.618 41.163 562.797 42.51 C 564.975 43.857 566.695 45.477 567.957 47.369 L 568.559 41.951 L 576.557 41.951 L 576.557 77.899 L 567.871 77.899 L 567.871 72.223 C 567.24 73.026 566.294 73.943 565.033 74.975 C 563.771 76.007 562.252 76.896 560.475 77.641 C 558.697 78.386 556.662 78.759 554.369 78.759 Z M 556.691 71.621 C 559.5 71.621 561.908 70.861 563.915 69.342 C 565.921 67.823 567.24 65.744 567.871 63.107 L 567.871 55.711 C 567.183 53.36 565.792 51.411 563.7 49.863 C 561.607 48.315 559.185 47.541 556.433 47.541 C 554.369 47.541 552.477 48.043 550.757 49.046 C 549.037 50.049 547.661 51.454 546.629 53.26 C 545.597 55.066 545.081 57.144 545.081 59.495 C 545.081 61.788 545.611 63.852 546.672 65.687 C 547.732 67.522 549.151 68.969 550.929 70.03 C 552.706 71.091 554.627 71.621 556.691 71.621 Z M 609.227 95.787 C 605.099 95.787 601.716 95.07 599.079 93.637 C 596.442 92.204 594.005 90.512 591.769 88.563 L 596.929 82.629 C 598.706 84.349 600.555 85.696 602.476 86.671 C 604.397 87.646 606.59 88.133 609.055 88.133 C 612.896 88.133 615.892 87.216 618.042 85.381 C 620.192 83.546 621.296 81.081 621.353 77.985 L 621.353 71.449 C 620.149 73.57 618.3 75.319 615.806 76.695 C 613.312 78.071 610.316 78.759 606.819 78.759 C 603.494 78.759 600.455 77.928 597.703 76.265 C 594.951 74.602 592.744 72.338 591.081 69.471 C 589.418 66.604 588.587 63.365 588.587 59.753 C 588.587 56.026 589.461 52.715 591.21 49.82 C 592.959 46.925 595.266 44.646 598.133 42.983 C 601 41.32 604.067 40.489 607.335 40.489 C 610.488 40.489 613.341 41.077 615.892 42.252 C 618.443 43.427 620.292 44.904 621.439 46.681 L 622.041 41.951 L 630.039 41.951 L 630.039 78.157 C 630.039 81.425 629.179 84.392 627.459 87.058 C 625.739 89.724 623.317 91.845 620.192 93.422 C 617.067 94.999 613.412 95.787 609.227 95.787 Z M 597.359 59.495 C 597.359 61.788 597.889 63.852 598.95 65.687 C 600.011 67.522 601.444 68.969 603.25 70.03 C 605.056 71.091 607.077 71.621 609.313 71.621 C 612.294 71.621 614.846 70.833 616.967 69.256 C 619.088 67.679 620.55 65.658 621.353 63.193 L 621.353 55.797 C 620.55 53.332 619.074 51.339 616.924 49.82 C 614.774 48.301 612.237 47.541 609.313 47.541 C 607.077 47.541 605.056 48.057 603.25 49.089 C 601.444 50.121 600.011 51.54 598.95 53.346 C 597.889 55.152 597.359 57.202 597.359 59.495 Z M 662.037 78.759 C 657.909 78.759 654.354 77.942 651.373 76.308 C 648.392 74.674 646.098 72.409 644.493 69.514 C 642.888 66.619 642.085 63.336 642.085 59.667 C 642.085 56.112 642.988 52.887 644.794 49.992 C 646.6 47.097 649.022 44.789 652.061 43.069 C 655.1 41.349 658.482 40.489 662.209 40.489 C 667.025 40.489 671.024 41.879 674.206 44.66 C 677.388 47.441 679.524 51.354 680.613 56.399 L 652.491 66.117 C 653.523 67.78 654.885 69.07 656.576 69.987 C 658.267 70.904 660.145 71.363 662.209 71.363 C 663.757 71.363 665.248 71.105 666.681 70.589 C 668.114 70.073 669.462 69.328 670.723 68.353 L 674.679 74.803 C 672.844 76.007 670.809 76.967 668.573 77.684 C 666.337 78.401 664.158 78.759 662.037 78.759 Z M 650.685 59.151 C 650.685 59.782 650.714 60.384 650.771 60.957 L 670.809 53.647 C 670.064 51.984 668.96 50.522 667.498 49.261 C 666.036 48 664.072 47.369 661.607 47.369 C 658.396 47.369 655.773 48.473 653.738 50.68 C 651.703 52.887 650.685 55.711 650.685 59.151 Z"/>
</svg>
